<svg width="801" height="801" viewBox="0 0 801 801" fill="none" xmlns="http://www.w3.org/2000/svg">
<path fill-rule="evenodd" clip-rule="evenodd" d="M483.459 165.9C417.08 176.214 314.175 234.633 197.93 327.994C158.062 360.012 112.724 399.438 112.111 402.62C111.502 405.781 115.95 404.435 129.308 397.414C151.947 385.514 194.981 367.911 229.932 356.254C277.595 340.356 316.804 333.029 354.432 332.988C390.737 332.949 413.563 339.306 439.78 356.76C487.441 388.489 512.385 431.849 528.804 511.513C536.705 549.849 541.088 590.298 543.544 647.559C544.215 663.195 545.206 667.149 547.684 664.074C550.428 660.67 573.584 557.055 582.485 508.35C595.549 436.875 600.607 382.327 599.627 323.52C598.927 281.592 596.39 259.676 589.449 235.62C577.828 195.343 554.947 171.657 521.932 165.729C512.423 164.021 495.054 164.098 483.459 165.9ZM331.966 391.462C311.396 393.609 283.649 401.043 256.943 411.564C240.883 417.89 192.984 441.34 190.836 443.927C189.915 445.037 189.899 445.679 190.77 446.55C191.641 447.421 196.515 446.788 210.677 443.966C235.448 439.031 248.038 437.426 267.932 436.667C309.476 435.081 345.558 444.149 374.432 463.432C405.912 484.456 439.689 537.269 466.131 606.812C469.625 616.002 471.303 618.341 473.107 616.537C474.613 615.031 472.69 560.561 470.417 540.312C463.982 482.996 450.073 444.46 426.989 419.99C405.187 396.879 372.908 387.188 331.966 391.462Z" fill="black"/>
</svg>
